<svg xmlns="http://www.w3.org/2000/svg" viewBox="0 0 459.22 512"><g style="isolation:isolate"><polygon points="451.3 192.66 451.3 382.68 424.91 382.68 34.31 382.68 7.92 382.68 7.92 192.66 34.31 192.66 424.91 192.66 451.3 192.66" style="fill:#eee"/><polygon points="451.3 192.66 451.3 382.68 424.91 382.68 34.31 382.68 7.92 382.68 7.92 192.66 34.31 192.66 424.91 192.66 451.3 192.66" style="fill:#999;opacity:0.25;mix-blend-mode:multiply"/><polygon points="424.59 81.81 319.34 81.81 319.34 7.92 424.59 81.81" style="fill:#20b5e9"/><polygon points="424.59 81.81 319.34 81.81 319.34 7.92 424.59 81.81" style="fill:#999;opacity:0.5;mix-blend-mode:multiply"/><rect x="34.31" y="382.68" width="390.6" height="121.4" style="fill:#20b5e9"/><polygon points="424.91 82.03 424.91 192.66 34.31 192.66 34.31 7.92 319.34 7.92 319.34 81.81 424.59 81.81 424.91 82.03" style="fill:#20b5e9"/><rect x="34.31" y="382.68" width="195.3" height="121.4" style="fill:#20b5e9"/><rect x="34.31" y="382.68" width="195.3" height="121.4" style="fill:#999;opacity:0.25;mix-blend-mode:multiply"/><rect x="34.31" y="7.92" width="195.3" height="184.74" style="fill:#20b5e9"/><rect x="34.31" y="7.92" width="195.3" height="184.74" style="fill:#999;opacity:0.25;mix-blend-mode:multiply"/><polygon points="451.3 192.66 424.91 192.66 34.31 192.66 7.92 192.66 7.92 292.95 451.3 292.95 451.3 192.66" style="fill:#eee"/><path d="M459.22,184.74h-26.4V77.79L321.84,0H26.39V184.74H0V390.6H26.39V512H432.83V390.6h26.39V184.74Zm-132-161.59L399.54,73.9H327.26Zm-285-7.31H311.42V89.73H417v95H42.23ZM417,496.17H42.23V390.6H417V496.17Zm26.39-121.41H15.84V200.58H443.38V374.76Z" style="fill:#222"/><rect x="409.07" y="216.41" width="21.11" height="15.84" style="fill:#222"/><rect x="409.07" y="343.09" width="21.11" height="15.83" style="fill:#222"/><rect x="29.03" y="343.09" width="21.11" height="15.83" style="fill:#222"/><rect x="29.03" y="216.41" width="21.11" height="15.84" style="fill:#222"/><path d="M340.45,332.54H319.34a18.49,18.49,0,0,1-18.47-18.48H285a34.35,34.35,0,0,0,34.31,34.31h21.11a34.31,34.31,0,0,0,0-68.62H319.34a18.47,18.47,0,1,1,0-36.94h21.11a18.49,18.49,0,0,1,18.48,18.47h15.83A34.35,34.35,0,0,0,340.45,227H319.34a34.31,34.31,0,0,0,0,68.62h21.11a18.48,18.48,0,1,1,0,37Z" style="fill:#222"/><path d="M234.89,332.54H213.77a18.5,18.5,0,0,1-18.47-18.48H179.46a34.35,34.35,0,0,0,34.31,34.31h21.12a34.31,34.31,0,0,0,0-68.62H213.77a18.47,18.47,0,0,1,0-36.94h21.12a18.49,18.49,0,0,1,18.47,18.47H269.2A34.35,34.35,0,0,0,234.89,227H213.77a34.31,34.31,0,0,0,0,68.62h21.12a18.48,18.48,0,0,1,0,37Z" style="fill:#222"/><path d="M116.12,353.65a47.56,47.56,0,0,0,47.51-47.51H147.79a31.67,31.67,0,1,1-63.34,0V274.47a31.67,31.67,0,1,1,63.34,0h15.84a47.51,47.51,0,0,0-95,0v31.67A47.56,47.56,0,0,0,116.12,353.65Z" style="fill:#222"/><rect x="87.09" y="432.83" width="285.03" height="15.83" style="fill:#fff"/><path d="M92.17,110.63c5.44,0,5.88,2.34,5.88,5.16a58,58,0,0,1-.8,8.21l0,.34a59,59,0,0,0-.8,8.44c0,9.83,6.44,15.69,17.22,15.69H128V138.15H113.88c-4.22-.07-5.72-1.74-5.72-6.39a41.57,41.57,0,0,1,.49-5.33c.07-.53.14-1.07.19-1.51l0-.17a47.56,47.56,0,0,0,.82-7.94c0-5.72-2-9.09-4.57-11.08,2.44-1.92,4.57-5.29,4.57-11.2a46.82,46.82,0,0,0-.84-8.06c-.07-.61-.15-1.21-.23-1.8a41.59,41.59,0,0,1-.46-5.2c0-4.6,1.63-6.42,5.78-6.49H128V62.66h-14.5c-10.87,0-17.11,5.94-17.11,16.3a59.58,59.58,0,0,0,.84,8.69l0,.13a54.49,54.49,0,0,1,.77,7.77c0,2.68-.71,5.16-5.88,5.16H85.8v9.92Z" style="fill:#fff"/><path d="M243.05,100.51c-5.44,0-5.88-2.34-5.88-5.17a58.06,58.06,0,0,1,.79-8.21l0-.34a59.06,59.06,0,0,0,.79-8.44c0-9.82-6.43-15.69-17.22-15.69H207.19V73h14.15c4.22.07,5.71,1.75,5.71,6.39a41.48,41.48,0,0,1-.48,5.33c-.07.53-.14,1.07-.2,1.51l0,.17a47.53,47.53,0,0,0-.83,7.94c0,5.72,2,9.1,4.58,11.08-2.44,1.92-4.58,5.3-4.58,11.21a46.81,46.81,0,0,0,.85,8.06c.07.61.15,1.21.22,1.8a39.48,39.48,0,0,1,.46,5.19c0,4.6-1.63,6.42-5.77,6.49H207.19v10.32h14.49c10.88,0,17.12-5.94,17.12-16.3a60.85,60.85,0,0,0-.84-8.68l0-.13a53.08,53.08,0,0,1-.77-7.77c0-2.69.71-5.17,5.88-5.17h6.36v-9.91Z" style="fill:#fff"/><rect x="159.78" y="70.21" width="15.83" height="17.15" style="fill:#fff"/><path d="M175.61,123.07V108.15H159.78V125.3H166c4.61,10.41-6.47,9.63-6.47,9.63v6c14,0,15.57-6.17,16-11C175.69,128.5,175.66,125.25,175.61,123.07Z" style="fill:#fff"/></g></svg>