<svg xmlns="http://www.w3.org/2000/svg" viewBox="0 0 512 512">
  <title>quiz-01</title>
  <g style="isolation:isolate"><path d="M408,488a8,8,0,0,0,16,0V400H408Z" style="fill:#aea79f"/><path d="M319.21,496h74.16a23.88,23.88,0,0,1-1.37-8V16H319.21Z" style="fill:#efb73e"/><path d="M319.21,496h74.16a23.88,23.88,0,0,1-1.37-8V16H319.21Z" style="fill:#999;opacity:0.25;mix-blend-mode:multiply"/><polygon points="239.21 16 239.21 59 239.21 59 239.21 496 319.21 496 319.21 88 319.21 59 319.21 16 239.21 16" style="fill:#efb73e"/><path d="M239.21,16H88V488a8,8,0,0,0,8,8H239.21Z" style="fill:#efb73e"/>
    <g style="opacity:0.25;mix-blend-mode:soft-light"><path d="M239.21,16H88V488a8,8,0,0,0,8,8H239.21Z" style="fill:#fff"/></g><path d="M432,384H408V8a8,8,0,0,0-8-8H80a8,8,0,0,0-8,8V488a24,24,0,0,0,24,24H416a24,24,0,0,0,24-24V392A8,8,0,0,0,432,384Zm-8,104a8,8,0,0,1-16,0V400h16v88ZM88,16H392V488a23.84,23.84,0,0,0,1.37,8H96a8,8,0,0,1-8-8Z" style="fill:#222"/><path d="M344,211a8,8,0,0,0,0-16H208a8,8,0,0,0,0,16H344Z" style="fill:#222"/><path d="M344,291a8,8,0,0,0,0-16H208a8,8,0,0,0,0,16H344Z" style="fill:#222"/><path d="M344,371a8,8,0,0,0,0-16H208a8,8,0,0,0,0,16H344Z" style="fill:#222"/><path d="M344,451a8,8,0,0,0,0-16H208a8,8,0,0,0,0,16H344Z" style="fill:#222"/><path d="M151,205H139a4,4,0,0,1-4-4V189a4,4,0,0,1,4-4h12a4,4,0,0,1,4,4v12A4,4,0,0,1,151,205Zm4-35H135a15,15,0,0,0-15,15v20a15,15,0,0,0,15,15h20a15,15,0,0,0,15-15V185a15,15,0,0,0-15-15Z" style="fill:#222"/><path d="M151,365H139a4,4,0,0,1-4-4V349a4,4,0,0,1,4-4h12a4,4,0,0,1,4,4v12A4,4,0,0,1,151,365Zm4-35H135a15,15,0,0,0-15,15v20a15,15,0,0,0,15,15h20a15,15,0,0,0,15-15V345a15,15,0,0,0-15-15Z" style="fill:#222"/><path d="M151,445H139a4,4,0,0,1-4-4V429a4,4,0,0,1,4-4h12a4,4,0,0,1,4,4v12A4,4,0,0,1,151,445Zm4-35H135a15,15,0,0,0-15,15v20a15,15,0,0,0,15,15h20a15,15,0,0,0,15-15V425a15,15,0,0,0-15-15Z" style="fill:#222"/><path d="M155,250H135a15,15,0,0,0-15,15v20a15,15,0,0,0,15,15h20a15,15,0,0,0,15-15V265a15,15,0,0,0-15-15Z" style="fill:#222"/><path d="M505.24,424.24A80.24,80.24,0,1,1,425,344,80.24,80.24,0,0,1,505.24,424.24Z" style="fill:#38b44a"/><path d="M424.5,352A72.5,72.5,0,1,1,352,424.5,72.58,72.58,0,0,1,424.5,352m0-15A87.5,87.5,0,1,0,512,424.5,87.51,87.51,0,0,0,424.5,337Z" style="fill:#222"/><path d="M425,368.58a55.67,55.67,0,1,0,55.66,55.66A55.73,55.73,0,0,0,425,368.58Zm0,96.28a40.62,40.62,0,1,1,40.61-40.62A40.66,40.66,0,0,1,425,464.86Z" style="fill:#222"/><path d="M425,464.86a40.62,40.62,0,1,1,40.61-40.62A40.66,40.66,0,0,1,425,464.86Z" style="fill:#fff"/><path d="M417,421.13,403.39,435l10.51,10.64L432,427.36V400.17H417Z" style="fill:#222"/><polygon points="244.6 140.56 271.72 140.56 271.72 54.74 244.6 54.74 244.6 69.54 256.93 69.54 256.93 125.76 244.6 125.76 244.6 140.56" style="fill:#fff"/><polygon points="140.72 140.56 113.6 140.56 113.6 54.74 140.72 54.74 140.72 69.54 128.39 69.54 128.39 125.76 140.72 125.76 140.72 140.56" style="fill:#fff"/><rect x="155.16" y="105.54" width="65.93" height="15" style="fill:#fff"/><rect x="164.22" y="75.54" width="65.93" height="15" style="fill:#fff"/><polygon points="203.76 137.24 190.85 134.93 207.15 58.06 220.06 60.37 203.76 137.24" style="fill:#fff"/><polygon points="179.04 137.24 166.13 134.93 182.42 58.06 195.33 60.37 179.04 137.24" style="fill:#fff"/></g>
</svg>
