<svg xmlns="http://www.w3.org/2000/svg" viewBox="0 0 512 431.61"><g style="isolation:isolate"><rect x="231.33" y="52.43" width="228.24" height="123.37" style="fill:#efb73e"/><rect x="231.33" y="52.43" width="228.24" height="74.02" style="fill:#efb73e"/><rect x="231.33" y="52.43" width="228.24" height="74.02" style="fill:#999;opacity:0.25;mix-blend-mode:multiply"/><path d="M188.14,422.36V9.25H502.75V422.36H188.14ZM459.57,175.81V52.43H231.33V175.81Z" style="fill:#eee"/><circle cx="98.7" cy="98.7" r="52.43" style="fill:#efb73e"/><circle cx="98.7" cy="98.7" r="52.43" style="fill:#fff;opacity:0.5;mix-blend-mode:soft-light"/><path d="M83.28,98.7a52.25,52.25,0,0,1,33.93-48.91,52.43,52.43,0,1,0,0,97.82A52.26,52.26,0,0,1,83.28,98.7Z" style="fill:#efb73e"/><path d="M9.25,9.25V422.36H188.14V9.25Zm89.45,37A52.43,52.43,0,1,1,46.27,98.7,52.39,52.39,0,0,1,98.7,46.27Z" style="fill:#e7eced"/><g style="opacity:0.5;mix-blend-mode:multiply"><path d="M9.25,9.25V422.36H188.14V9.25Zm89.45,37A52.43,52.43,0,1,1,46.27,98.7,52.39,52.39,0,0,1,98.7,46.27Z" style="fill:#999"/></g><path d="M0,431.61H512V0H0Zm493.5-18.5H197.4V18.51H493.5v394.6Zm-475-394.6H178.89v394.6H18.51Z" style="fill:#222"/><path d="M98.7,160.39A61.69,61.69,0,1,0,37,98.7,61.77,61.77,0,0,0,98.7,160.39Zm0-104.87A43.18,43.18,0,1,1,55.52,98.7,43.23,43.23,0,0,1,98.7,55.52Z" style="fill:#222"/><path d="M468.82,185.06V43.18H222.07V185.06ZM240.58,61.69H450.31V166.55H240.58Z" style="fill:#222"/><rect x="447.23" y="209.74" width="24.67" height="18.51" style="fill:#222"/><rect x="410.22" y="209.74" width="24.67" height="18.51" style="fill:#222"/><rect x="218.99" y="209.74" width="24.67" height="18.51" style="fill:#222"/><rect x="218.99" y="246.75" width="252.92" height="18.51" style="fill:#222"/><rect x="218.99" y="283.42" width="252.92" height="18.51" style="fill:#222"/><rect x="218.99" y="320.09" width="252.92" height="18.51" style="fill:#222"/><rect x="218.99" y="356.76" width="140.92" height="18.51" style="fill:#222"/><rect x="33.93" y="185.06" width="24.67" height="18.51" style="fill:#222"/><rect x="33.93" y="228.24" width="117.21" height="18.51" style="fill:#222"/><rect x="33.93" y="271.42" width="117.21" height="18.51" style="fill:#222"/><rect x="70.94" y="185.06" width="55.52" height="18.51" style="fill:#222"/><rect x="138.8" y="185.06" width="24.67" height="18.51" style="fill:#222"/><polygon points="283.76 126.46 265.25 126.46 265.25 86.36 305.35 86.36 305.35 104.87 283.76 104.87 283.76 126.46" style="fill:#fff"/></g></svg>