<svg xmlns="http://www.w3.org/2000/svg" viewBox="0 0 512 431.87"><g style="isolation:isolate"><polygon points="301.96 368.6 153.6 368.6 5.24 368.6 5.24 122.12 153.6 122.12 301.96 122.12 301.96 368.6" style="fill:#e95420"/><polygon points="301.96 368.6 153.6 368.6 5.24 368.6 5.24 122.12 153.6 122.12 301.96 122.12 301.96 368.6" style="fill:#999;opacity:0.25;mix-blend-mode:multiply"/><rect x="5.24" y="122.12" width="296.73" height="123.24" style="fill:#e95420"/><polygon points="93.95 292.1 47.21 245.36 93.95 198.62 99.76 204.43 58.84 245.36 99.76 286.28 93.95 292.1" style="fill:#fff;stroke:#fff;stroke-miterlimit:10;stroke-width:8.60874974274168px"/><polygon points="213.25 292.1 207.44 286.28 248.36 245.36 207.44 204.43 213.25 198.62 259.99 245.36 213.25 292.1" style="fill:#fff;stroke:#fff;stroke-miterlimit:10;stroke-width:8.60874974274168px"/><rect x="102.13" y="241.25" width="102.94" height="8.22" transform="translate(-133.81 279.86) rotate(-64.8)" style="fill:#fff;stroke:#fff;stroke-miterlimit:10;stroke-width:8.60874974274168px"/><path d="M282.76,138.14V352.57H24.44V138.14H282.76m20.78-20.78H3.66v256H303.54v-256Z" style="fill:#222"/><rect x="11.57" width="332.17" height="21.94" style="fill:#222"/><rect x="11.57" y="58.51" width="175.54" height="21.94" style="fill:#222"/><rect x="336.46" y="117.36" width="124.34" height="21.94" style="fill:#222"/><rect x="482.74" y="117.36" width="29.26" height="21.94" style="fill:#222"/><rect x="336.46" y="175.87" width="175.54" height="21.94" style="fill:#222"/><rect x="336.46" y="234.39" width="175.54" height="21.94" style="fill:#222"/><rect x="336.46" y="292.9" width="175.54" height="21.94" style="fill:#222"/><rect x="387.66" y="351.41" width="124.34" height="21.94" style="fill:#222"/><rect y="409.93" width="453.49" height="21.94" style="fill:#222"/><rect x="482.74" y="409.93" width="29.26" height="21.94" style="fill:#222"/></g></svg>